<svg xmlns="http://www.w3.org/2000/svg" xmlns:xlink="http://www.w3.org/1999/xlink" width="500" height="500" viewBox="0 0 250 250"><defs><clipPath id="i"><path d="M0 0h250v250H0z"/></clipPath><clipPath id="o"><path d="M0 0h250v250H0z"/></clipPath><clipPath id="v"><path d="M0 0h250v250H0z"/></clipPath><clipPath id="d"><path d="M0 0h250v250H0z"/></clipPath><clipPath id="f"><path d="M0 0h250v250H0z"/></clipPath><clipPath id="g"><path d="M0 0h250v250H0z"/></clipPath><clipPath id="x"><path d="M0 0h250v250H0z"/></clipPath><clipPath id="b"><path d="M0 0h250v250H0z"/></clipPath><clipPath id="t"><path d="M0 0h250v250H0z"/></clipPath><clipPath id="k"><path d="M0 0h250v250H0z"/></clipPath><clipPath id="r"><path d="M0 0h250v250H0z"/></clipPath><clipPath id="m"><path d="M0 0h250v250H0z"/></clipPath><clipPath id="q"><path d="M0 0h250v250H0z"/></clipPath><mask id="K"><g filter="url(#a)"><path style="fill:#000;fill-opacity:.501961;stroke:none" d="M0 0h250v250H0z"/></g></mask><mask id="C"><g filter="url(#a)"><path style="fill:#000;fill-opacity:.701961;stroke:none" d="M0 0h250v250H0z"/></g></mask><mask id="M"><g filter="url(#a)"><path style="fill:#000;fill-opacity:.74902;stroke:none" d="M0 0h250v250H0z"/></g></mask><mask id="G"><g filter="url(#a)"><path style="fill:#000;fill-opacity:.901961;stroke:none" d="M0 0h250v250H0z"/></g></mask><mask id="R"><g filter="url(#a)"><path style="fill:#000;fill-opacity:.701961;stroke:none" d="M0 0h250v250H0z"/></g></mask><mask id="Z"><g filter="url(#a)"><path style="fill:#000;fill-opacity:.501961;stroke:none" d="M0 0h250v250H0z"/></g></mask><mask id="I"><g filter="url(#a)"><path style="fill:#000;fill-opacity:.501961;stroke:none" d="M0 0h250v250H0z"/></g></mask><mask id="X"><g filter="url(#a)"><path style="fill:#000;fill-opacity:.501961;stroke:none" d="M0 0h250v250H0z"/></g></mask><mask id="ab"><g filter="url(#a)"><path style="fill:#000;fill-opacity:.74902;stroke:none" d="M0 0h250v250H0z"/></g></mask><mask id="T"><g filter="url(#a)"><path style="fill:#000;fill-opacity:.4;stroke:none" d="M0 0h250v250H0z"/></g></mask><mask id="E"><g filter="url(#a)"><path style="fill:#000;fill-opacity:.4;stroke:none" d="M0 0h250v250H0z"/></g></mask><mask id="ah"><g filter="url(#a)"><path style="fill:#000;fill-opacity:.2;stroke:none" d="M0 0h250v250H0z"/></g></mask><mask id="V"><g filter="url(#a)"><path style="fill:#000;fill-opacity:.901961;stroke:none" d="M0 0h250v250H0z"/></g></mask><g id="L" clip-path="url(#k)"><path style="stroke:none;fill-rule:nonzero;fill:url(#l)" d="M98.707 103.652c-.71 1.094-2.543 1.157-4.094.149-1.55-1.012-2.23-2.715-1.52-3.805.712-1.09 2.548-1.156 4.094-.144 1.551 1.007 2.231 2.714 1.52 3.8Zm0 0"/></g><g id="H" clip-path="url(#g)"><path style="stroke:none;fill-rule:nonzero;fill:url(#h)" d="M88.707 108.746a1.234 1.234 0 0 1 1.703.336 1.225 1.225 0 0 1-.336 1.7 1.22 1.22 0 0 1-1.699-.333 1.23 1.23 0 0 1 .332-1.703Zm0 0"/></g><g id="W" clip-path="url(#r)"><path style="stroke:none;fill-rule:nonzero;fill:url(#s)" d="M153.086 108.746a1.225 1.225 0 0 1 1.363 2.035 1.22 1.22 0 0 1-1.699-.332 1.227 1.227 0 0 1 .336-1.703Zm0 0"/></g><g id="ag" clip-path="url(#x)"><path style="stroke:none;fill-rule:nonzero;fill:#fff5ef;fill-opacity:1" d="M125.11 140c.761 0 2.18-.926 2.242-2.79.25-7.507-1.196-29.788-2.243-29.71-.972.074-2.832 22.047-2.433 29.71.097 1.88 1.578 2.79 2.433 2.79Zm0 0"/></g><g id="Y" clip-path="url(#t)"><path style="stroke:none;fill-rule:nonzero;fill:url(#u)" d="M159.512 104.902c-.313.47-1.211.414-2.008-.12-.797-.532-1.188-1.348-.875-1.813h.004c.312-.469 1.21-.414 2.004.12.797.532 1.187 1.345.875 1.813Zm0 0"/></g><g id="U" clip-path="url(#q)"><path style="stroke:none;fill-rule:nonzero;fill:#000;fill-opacity:1" d="M160.129 105.313a2.94 2.94 0 1 1-2.941-2.942 2.938 2.938 0 0 1 2.94 2.942Zm0 0"/></g><g id="F" clip-path="url(#f)"><path style="stroke:none;fill-rule:nonzero;fill:#000;fill-opacity:1" d="M95.754 105.313a2.94 2.94 0 1 1-5.882 0 2.94 2.94 0 0 1 5.882 0Zm0 0"/></g><g id="Q" clip-path="url(#m)"><path style="stroke:none;fill-rule:nonzero;fill:url(#n)" d="m156.348 97.895-.09.011c.039.168.074.34.105.508-.004-.172-.008-.348-.015-.52Zm.015.52c.086 2.464.23 4.66.649 5.452.218-.87-.157-3.039-.649-5.453Zm.649 5.452c-.055.211-.137.352-.262.399-.125.05-.281-.004-.457-.125.05.207.043.37-.047.468-.09.102-.25.13-.465.098.14.164.215.313.184.441-.035.133-.168.23-.367.305.199.078.332.176.363.305.031.133-.04.281-.18.441.211-.027.375 0 .461.102.09.101.094.265.043.472.176-.12.332-.171.457-.125.13.051.207.192.258.403.102-.192.215-.313.348-.324.132-.02.273.07.414.234 0-.215.043-.375.16-.45.105-.077.273-.062.473.016-.098-.191-.13-.351-.07-.472.062-.118.218-.184.429-.207-.176-.125-.285-.25-.281-.387 0-.133.105-.258.285-.383-.215-.023-.363-.09-.43-.207-.062-.117-.027-.281.074-.473-.203.079-.363.09-.476.016-.11-.078-.156-.234-.156-.45-.137.161-.282.247-.41.231-.137-.02-.25-.136-.348-.328Zm.758.094c.597-.668 1.277-2.758 1.96-5.129-1.066 2.223-1.957 4.234-1.96 5.129Zm1.96-5.129c.075-.152.153-.309.223-.46a1.524 1.524 0 0 0-.078-.036c-.047.168-.094.336-.145.496Zm-1.328 5.566c.84-.312 2.414-1.851 4.121-3.628-1.976 1.468-3.703 2.835-4.12 3.628Zm4.121-3.628c.125-.094.254-.188.383-.282-.02-.023-.039-.043-.05-.062-.114.113-.22.23-.333.344Zm-3.765 4.308c.89.113 2.996-.52 5.336-1.3-2.434.386-4.598.792-5.336 1.3Zm5.336-1.297c.14-.02.281-.043.422-.066-.004-.024-.012-.047-.016-.07-.137.043-.273.09-.406.136Zm-5.34 2.067c.738.511 2.898.933 5.328 1.328-2.332-.793-4.437-1.438-5.328-1.328Zm5.328 1.328c.121.039.238.082.356.12a.293.293 0 0 0 .015-.062c-.121-.02-.25-.039-.371-.058Zm-5.687-.653c.414.797 2.132 2.176 4.101 3.657-1.7-1.79-3.262-3.336-4.101-3.657Zm4.101 3.653.223.238.039-.039c-.086-.066-.176-.133-.262-.2Zm-4.73-3.219c-.004.902.875 2.914 1.933 5.145-.676-2.372-1.34-4.47-1.933-5.145Zm1.933 5.145c.024.093.051.191.078.285a.328.328 0 0 1 .047-.016c-.043-.09-.086-.183-.125-.27ZM157 107.047c-.418.797-.574 2.988-.676 5.453.504-2.414.89-4.578.676-5.453Zm-.676 5.453c-.023.094-.039.188-.058.285.015.004.03.004.047.008l.011-.293Zm-.039-5.727c-.742.508-1.898 2.38-3.133 4.512 1.567-1.898 2.918-3.64 3.133-4.512Zm-3.133 4.512c-.066.078-.136.164-.203.242l.047.032c.05-.09.106-.184.156-.274Zm2.63-5.086c-.895.106-2.79 1.223-4.872 2.535 2.27-.949 4.27-1.863 4.871-2.535Zm-4.872 2.54-.332.136c.008.016.02.035.031.05l.301-.187Zm4.688-3.286c-.84-.32-3.036-.21-5.493-.012 2.454.207 4.653.329 5.493.012Zm-5.493-.012c-.132-.015-.273-.027-.402-.039-.004.024-.004.051-.004.07.137-.011.274-.023.406-.03Zm5.676-.73c-.59-.672-2.586-1.598-4.851-2.563 2.074 1.325 3.96 2.454 4.851 2.563Zm-4.851-2.563c-.13-.085-.262-.168-.395-.253a.588.588 0 0 1-.035.07c.145.062.293.12.43.183Zm5.363 1.993c-.211-.875-1.55-2.621-3.106-4.532 1.22 2.141 2.364 4.016 3.106 4.532Zm-3.106-4.532a15.88 15.88 0 0 1-.25-.437c-.023.02-.046.035-.07.05.106.13.215.258.32.387Zm0 0"/></g><g id="J" clip-path="url(#i)"><path style="stroke:none;fill-rule:nonzero;fill:url(#j)" d="M95.137 104.902c-.313.47-1.211.414-2.008-.12-.797-.532-1.188-1.348-.875-1.813.312-.469 1.21-.414 2.008.12.797.532 1.187 1.345.875 1.813Zm0 0"/></g><g id="B" clip-path="url(#b)"><path style="stroke:none;fill-rule:nonzero;fill:url(#c)" d="m91.973 97.895-.09.011c.039.168.07.34.105.508-.004-.172-.008-.348-.015-.52Zm.015.52c.09 2.464.23 4.66.649 5.452.218-.87-.157-3.039-.649-5.453Zm.649 5.452c-.055.211-.137.352-.262.399-.125.05-.281-.004-.457-.125.05.207.043.37-.047.468-.09.102-.25.13-.465.098.14.164.211.313.18.441-.031.133-.164.23-.363.305.199.078.332.176.363.305.031.133-.043.281-.184.441.215-.027.38 0 .465.102.09.101.094.265.043.472.176-.12.332-.171.457-.125.125.051.207.192.258.403.102-.192.215-.313.352-.324.128-.02.27.07.41.234 0-.215.047-.375.16-.45.11-.077.273-.062.473.016-.098-.191-.133-.351-.07-.472.062-.118.218-.184.429-.207-.176-.125-.281-.25-.281-.387 0-.133.105-.258.285-.383-.211-.023-.363-.09-.43-.207-.058-.117-.027-.281.074-.473-.203.079-.363.09-.476.016-.11-.078-.156-.234-.156-.45-.137.161-.278.247-.41.231-.137-.02-.25-.136-.348-.328Zm.758.094c.597-.668 1.277-2.758 1.964-5.129-1.07 2.223-1.964 4.234-1.964 5.129Zm1.96-5.129c.075-.152.153-.309.223-.46l-.078-.036c-.047.168-.094.336-.145.496Zm-1.328 5.566c.84-.312 2.414-1.851 4.121-3.628-1.976 1.468-3.703 2.835-4.12 3.628Zm4.121-3.628c.125-.094.254-.188.383-.282-.02-.023-.039-.043-.054-.062-.11.113-.215.23-.329.344Zm-3.77 4.308c.892.113 3-.52 5.34-1.3-2.433.386-4.597.792-5.34 1.3Zm5.34-1.297c.141-.02.282-.043.423-.066-.004-.024-.012-.047-.016-.07-.137.043-.273.09-.406.136Zm-5.34 2.067c.74.511 2.9.933 5.329 1.328-2.332-.793-4.437-1.438-5.328-1.328Zm5.329 1.328c.121.039.238.082.356.12a.293.293 0 0 0 .015-.062c-.121-.02-.246-.039-.371-.058Zm-5.687-.653c.414.797 2.132 2.176 4.101 3.657-1.7-1.79-3.262-3.336-4.101-3.657Zm4.101 3.653.227.238c.011-.016.023-.027.035-.039-.086-.066-.176-.133-.262-.2Zm-4.734-3.219c-.004.902.879 2.914 1.933 5.145-.672-2.372-1.336-4.47-1.933-5.145Zm1.933 5.145c.028.093.055.191.078.285a.253.253 0 0 1 .051-.016c-.043-.09-.086-.183-.129-.27Zm-2.695-5.055c-.418.797-.574 2.988-.676 5.453.504-2.414.89-4.578.676-5.453Zm-.676 5.453c-.023.094-.039.188-.058.285.015.004.03.004.046.008l.012-.293Zm-.035-5.727c-.746.508-1.902 2.38-3.137 4.512 1.567-1.898 2.918-3.64 3.137-4.512Zm-3.137 4.512c-.066.078-.136.164-.203.242l.047.032c.05-.09.106-.184.156-.274Zm2.63-5.086c-.895.106-2.79 1.223-4.872 2.535 2.27-.949 4.27-1.863 4.871-2.535Zm-4.876 2.54c-.105.046-.215.09-.328.136.008.016.02.035.031.05.098-.062.2-.124.297-.187Zm4.692-3.286c-.84-.32-3.035-.21-5.493-.012 2.454.207 4.653.329 5.493.012Zm-5.493-.012c-.136-.015-.273-.027-.406-.039v.07c.137-.011.274-.023.406-.03Zm5.676-.73c-.59-.672-2.586-1.598-4.851-2.563 2.074 1.325 3.96 2.454 4.851 2.563Zm-4.851-2.563c-.13-.085-.262-.168-.395-.253a.588.588 0 0 1-.035.07c.145.062.29.12.43.183Zm5.363 1.993c-.211-.875-1.55-2.621-3.106-4.532 1.22 2.141 2.364 4.016 3.106 4.532Zm-3.106-4.532a15.88 15.88 0 0 1-.25-.437c-.023.02-.046.035-.07.05.106.13.215.258.32.387Zm0 0"/></g><g id="D" clip-path="url(#d)"><path style="stroke:none;fill-rule:nonzero;fill:url(#e)" d="M93.922 97.922c-.031-.004-.063-.012-.09-.016-.008.172-.02.348-.031.52.039-.168.082-.34.12-.504Zm-.121.5c-.551 2.406-.985 4.562-.785 5.437.437-.78.636-2.972.785-5.437Zm-.785 5.437c-.106.188-.223.305-.356.32-.133.012-.27-.081-.41-.245-.004.214-.05.37-.164.445-.113.074-.277.058-.477-.024.094.192.125.356.063.473-.067.117-.219.176-.434.195.172.125.278.254.274.391-.004.133-.114.258-.29.379.212.027.364.098.423.215.058.12.023.281-.082.469.203-.07.367-.082.476 0 .106.078.148.234.145.453.144-.157.285-.246.421-.227.13.02.243.145.336.336.055-.207.141-.348.27-.394.125-.043.281.015.453.14-.043-.207-.035-.375.055-.472.094-.098.258-.122.472-.09-.14-.164-.21-.313-.175-.446.035-.129.171-.222.375-.293-.2-.082-.329-.183-.36-.312-.027-.133.047-.281.192-.438-.215.02-.375-.007-.461-.109-.09-.105-.09-.27-.035-.477-.18.118-.336.168-.461.118-.125-.051-.204-.196-.25-.407Zm.707.29c.754-.493 1.949-2.337 3.222-4.446-1.605 1.867-2.988 3.578-3.222 4.445Zm3.222-4.446c.114-.129.227-.258.336-.39-.023-.016-.047-.036-.07-.051-.086.148-.176.297-.266.441Zm-2.722 5.031c.89-.086 2.812-1.168 4.918-2.441-2.29.91-4.313 1.781-4.918 2.441Zm4.918-2.441c.148-.059.293-.117.441-.172a1.343 1.343 0 0 0-.035-.074c-.133.082-.27.164-.406.246Zm-4.754 3.191c.832.336 3.031.274 5.492.125-2.45-.257-4.645-.425-5.492-.125Zm5.492.125.426.047v-.074c-.14.008-.285.02-.426.027Zm-5.692.614c.579.691 2.56 1.652 4.801 2.664-2.047-1.371-3.91-2.535-4.8-2.664Zm4.801 2.664.313.207a.249.249 0 0 0 .031-.055l-.344-.152Zm-5.324-2.102c.195.88 1.5 2.653 3.016 4.594-1.18-2.168-2.29-4.067-3.016-4.594Zm3.016 4.59c.054.094.105.191.156.285.016-.012.031-.02.047-.027a14.855 14.855 0 0 0-.203-.258Zm-3.739-4.332c-.234.863.094 3.039.54 5.465-.04-2.465-.137-4.664-.54-5.465Zm.536 5.465c.003.097.003.195.003.297.02-.004.036-.004.051-.004a7.71 7.71 0 0 0-.054-.293Zm-1.293-5.578c-.614.66-1.332 2.738-2.067 5.09 1.113-2.2 2.047-4.192 2.067-5.09Zm-2.067 5.09c-.043.085-.09.171-.133.261a.22.22 0 0 0 .047.016l.086-.277Zm1.445-5.54c-.851.297-2.453 1.81-4.195 3.547 2.008-1.43 3.762-2.761 4.195-3.547Zm-4.195 3.547c-.082.059-.172.121-.258.18.016.016.028.027.04.043.07-.074.144-.148.218-.223Zm3.856-4.234c-.891-.129-3.008.46-5.364 1.191 2.442-.332 4.61-.695 5.364-1.191Zm-5.364 1.191c-.117.02-.234.032-.355.051.004.02.012.04.016.055.117-.031.226-.07.34-.106Zm5.38-1.957c-.727-.527-2.88-.988-5.302-1.437 2.317.84 4.407 1.527 5.301 1.437Zm-5.302-1.437c-.128-.043-.257-.094-.382-.137l-.02.067.403.07Zm5.672.765c-.398-.804-2.086-2.21-4.023-3.73 1.66 1.816 3.191 3.398 4.023 3.73Zm-4.023-3.73c-.106-.113-.211-.23-.316-.344-.016.02-.036.04-.051.059.125.094.246.187.367.285Zm4.664 3.313c.023-.899-.82-2.93-1.828-5.18.625 2.383 1.246 4.492 1.828 5.18Zm-1.828-5.18c-.043-.16-.086-.324-.125-.485-.027.008-.055.02-.082.028.07.152.14.308.207.457Zm0 0"/></g><g id="S" clip-path="url(#o)"><path style="stroke:none;fill-rule:nonzero;fill:url(#p)" d="M158.297 97.922c-.031-.004-.063-.012-.09-.016-.008.172-.02.348-.031.52.039-.168.078-.34.12-.504Zm-.121.5c-.555 2.406-.985 4.562-.785 5.437.437-.78.636-2.972.785-5.437Zm-.785 5.437c-.106.188-.223.305-.356.32-.133.012-.27-.081-.41-.245-.004.214-.05.37-.164.445-.113.074-.277.058-.477-.024.094.192.125.356.063.473-.067.117-.219.176-.434.195.172.125.278.254.274.391-.004.133-.114.258-.29.379.212.027.36.098.423.215.058.12.023.281-.083.469.204-.07.368-.082.477 0 .11.078.149.234.145.453.144-.157.285-.246.421-.227.13.02.243.145.336.336.059-.207.141-.348.27-.394.125-.043.281.015.453.14-.043-.207-.035-.375.059-.472.09-.098.254-.122.468-.09-.14-.164-.21-.313-.175-.446.035-.129.172-.222.375-.293-.2-.082-.328-.183-.36-.312-.027-.133.047-.281.192-.438-.215.02-.375-.007-.461-.109-.09-.105-.09-.27-.035-.477-.18.118-.336.168-.461.118-.125-.051-.207-.196-.25-.407Zm.707.29c.754-.493 1.949-2.337 3.222-4.446-1.605 1.867-2.988 3.578-3.222 4.445Zm3.222-4.446c.114-.129.227-.258.336-.39-.023-.016-.047-.036-.07-.051-.086.148-.176.297-.266.441Zm-2.722 5.031c.89-.086 2.808-1.168 4.918-2.441-2.29.91-4.313 1.781-4.918 2.441Zm4.918-2.441c.144-.059.293-.117.441-.172a1.343 1.343 0 0 0-.035-.074c-.133.082-.27.164-.406.246Zm-4.754 3.191c.832.336 3.031.274 5.496.125-2.457-.257-4.649-.425-5.496-.125Zm5.492.125.426.047v-.074c-.14.008-.285.02-.426.027Zm-5.691.614c.578.691 2.558 1.652 4.8 2.664-2.047-1.371-3.91-2.535-4.8-2.664Zm4.8 2.664c.102.07.211.14.313.207a.249.249 0 0 0 .031-.055l-.344-.152Zm-5.324-2.102c.195.88 1.5 2.653 3.016 4.594-1.18-2.168-2.285-4.067-3.016-4.594Zm3.016 4.59c.054.094.105.191.156.285a.185.185 0 0 1 .047-.027 14.855 14.855 0 0 0-.203-.258Zm-3.739-4.332c-.234.863.094 3.039.54 5.465-.04-2.465-.137-4.664-.54-5.465Zm.536 5.465c.003.097.003.195.003.297.02-.004.036-.004.051-.004a7.71 7.71 0 0 0-.054-.293Zm-1.297-5.578c-.61.66-1.328 2.738-2.063 5.09 1.113-2.2 2.047-4.192 2.063-5.09Zm-2.063 5.09c-.043.085-.086.171-.133.261a.22.22 0 0 0 .047.016l.086-.277Zm1.446-5.54c-.852.297-2.454 1.81-4.196 3.547 2.008-1.43 3.762-2.761 4.196-3.547Zm-4.196 3.547c-.082.059-.172.121-.258.18.016.016.028.027.04.043.07-.074.148-.148.218-.223Zm3.856-4.234c-.891-.129-3.008.46-5.364 1.191 2.442-.332 4.61-.695 5.364-1.191Zm-5.364 1.191c-.117.02-.234.032-.351.051.004.02.008.04.015.055.114-.031.223-.07.336-.106Zm5.38-1.957c-.727-.527-2.88-.988-5.302-1.437 2.317.84 4.407 1.527 5.301 1.437Zm-5.302-1.437c-.128-.043-.257-.094-.382-.137l-.02.067.403.07Zm5.672.765c-.398-.804-2.086-2.21-4.023-3.73 1.66 1.816 3.191 3.398 4.023 3.73Zm-4.023-3.73c-.106-.113-.211-.23-.316-.344-.016.02-.036.04-.051.059.12.094.25.187.367.285Zm4.664 3.313c.023-.899-.82-2.93-1.828-5.18.625 2.383 1.246 4.492 1.828 5.18Zm-1.828-5.18-.129-.485c-.027.008-.055.02-.078.028.07.152.14.308.207.457Zm0 0"/></g><g id="aa" clip-path="url(#v)"><path style="stroke:none;fill-rule:nonzero;fill:url(#w)" d="M163.082 103.652c-.71 1.094-2.543 1.157-4.094.149-1.547-1.012-2.23-2.715-1.52-3.805.712-1.09 2.548-1.156 4.095-.144 1.55 1.007 2.23 2.714 1.519 3.8Zm0 0"/></g><radialGradient id="c" gradientUnits="userSpaceOnUse" cx="-568.659" cy="-521.042" fx="-568.659" fy="-521.042" r="59.751" gradientTransform="matrix(.12 -.031 .03062 .12012 176.914 150.3)"><stop offset="0" style="stop-color:#fff;stop-opacity:1"/><stop offset="1" style="stop-color:#fff;stop-opacity:0"/></radialGradient><radialGradient id="p" gradientUnits="userSpaceOnUse" cx="-582.833" cy="-519.102" fx="-582.833" fy="-519.102" r="59.747" gradientTransform="matrix(.12387 .0011 -.00137 .12387 228.578 170.294)"><stop offset="0" style="stop-color:#fff;stop-opacity:1"/><stop offset="1" style="stop-color:#fff;stop-opacity:0"/></radialGradient><radialGradient id="O" gradientUnits="userSpaceOnUse" cx="68.931" cy="105.995" fx="68.931" fy="105.995" r="29.524" gradientTransform="translate(-2.1 1.64) scale(1.292)"><stop offset=".95" style="stop-color:#000;stop-opacity:0"/><stop offset="1" style="stop-color:#000;stop-opacity:.2"/></radialGradient><radialGradient id="N" gradientUnits="userSpaceOnUse" cx="121.986" cy="82.496" fx="133.239" fy="82.527" r="16.003" gradientTransform="matrix(1.24975 .026 .02075 -.99975 -56.65 182.424)"><stop offset="0" style="stop-color:#e1ac8f;stop-opacity:1"/><stop offset=".7" style="stop-color:#e1ac8f;stop-opacity:.301961"/><stop offset="1" style="stop-color:#f0c7b1;stop-opacity:0"/></radialGradient><radialGradient id="n" gradientUnits="userSpaceOnUse" cx="-568.654" cy="-521.042" fx="-568.654" fy="-521.042" r="59.752" gradientTransform="matrix(.12 -.031 .03062 .12012 241.288 150.3)"><stop offset="0" style="stop-color:#fff;stop-opacity:1"/><stop offset="1" style="stop-color:#fff;stop-opacity:0"/></radialGradient><radialGradient id="e" gradientUnits="userSpaceOnUse" cx="-582.838" cy="-519.099" fx="-582.838" fy="-519.099" r="59.745" gradientTransform="matrix(.12387 .0011 -.00137 .12387 164.204 170.294)"><stop offset="0" style="stop-color:#fff;stop-opacity:1"/><stop offset="1" style="stop-color:#fff;stop-opacity:0"/></radialGradient><radialGradient id="P" gradientUnits="userSpaceOnUse" cx="128.643" cy="83.986" fx="128.643" fy="83.986" r="15.116" gradientTransform="rotate(5.981 153.58 78.03) scale(1.24993)"><stop offset="0" style="stop-color:#fff;stop-opacity:1"/><stop offset=".316" style="stop-color:#fcfdfd;stop-opacity:1"/><stop offset=".505" style="stop-color:#f4f7f8;stop-opacity:1"/><stop offset=".661" style="stop-color:#e5ecef;stop-opacity:1"/><stop offset=".76" style="stop-color:#d8e2e7;stop-opacity:1"/></radialGradient><radialGradient id="ac" gradientUnits="userSpaceOnUse" cx="121.587" cy="82.496" fx="132.839" fy="82.527" r="16.003" gradientTransform="matrix(-1.24975 .026 -.02075 -.99975 305.651 182.435)"><stop offset="0" style="stop-color:#e1ac8f;stop-opacity:1"/><stop offset=".7" style="stop-color:#e1ac8f;stop-opacity:.301961"/><stop offset="1" style="stop-color:#f0c7b1;stop-opacity:0"/></radialGradient><radialGradient id="ad" gradientUnits="userSpaceOnUse" cx="69.316" cy="105.995" fx="69.316" fy="105.995" r="29.524" gradientTransform="matrix(-1.292 0 0 1.292 252.1 1.64)"><stop offset=".95" style="stop-color:#000;stop-opacity:0"/><stop offset="1" style="stop-color:#000;stop-opacity:.2"/></radialGradient><radialGradient id="ae" gradientUnits="userSpaceOnUse" cx="100" cy="114" fx="100" fy="114" r="41" gradientTransform="scale(1.25)"><stop offset="0" style="stop-color:#ffe4d6;stop-opacity:.501961"/><stop offset=".9" style="stop-color:#f0c7b1;stop-opacity:0"/></radialGradient><radialGradient id="af" gradientUnits="userSpaceOnUse" cx="100" cy="54" fx="100" fy="54" r="37" gradientTransform="scale(1.25)"><stop offset="0" style="stop-color:#ffe4d6;stop-opacity:.501961"/><stop offset=".9" style="stop-color:#f0c7b1;stop-opacity:0"/></radialGradient><radialGradient id="A" gradientUnits="userSpaceOnUse" cx="129.041" cy="83.945" fx="129.041" fy="83.945" r="15.117" gradientTransform="matrix(-1.24313 .13025 .13025 1.24313 241.035 -15.58)"><stop offset="0" style="stop-color:#fff;stop-opacity:1"/><stop offset=".315" style="stop-color:#fcfdfd;stop-opacity:1"/><stop offset=".504" style="stop-color:#f4f7f8;stop-opacity:1"/><stop offset=".66" style="stop-color:#e5ecef;stop-opacity:1"/><stop offset=".76" style="stop-color:#d8e2e7;stop-opacity:1"/></radialGradient><linearGradient id="z" gradientUnits="userSpaceOnUse" x1="100" y1="142" x2="100" y2="139" gradientTransform="scale(1.25)"><stop offset=".1" style="stop-color:#e8b9a0;stop-opacity:1"/><stop offset="1" style="stop-color:#e1ac8f;stop-opacity:1"/></linearGradient><linearGradient id="s" gradientUnits="userSpaceOnUse" x1="122.67" y1="88.268" x2="123.606" y2="87.152" gradientTransform="matrix(1.25 0 0 1.25 -.313 .313)"><stop offset="0" style="stop-color:#fff;stop-opacity:1"/><stop offset="1" style="stop-color:#fff;stop-opacity:0"/></linearGradient><linearGradient id="u" gradientUnits="userSpaceOnUse" x1="127.212" y1="82.296" x2="126.463" y2="83.189" gradientTransform="matrix(1.25 0 0 1.25 -.313 .313)"><stop offset="0" style="stop-color:#fff;stop-opacity:1"/><stop offset="1" style="stop-color:#fff;stop-opacity:0"/></linearGradient><linearGradient id="l" gradientUnits="userSpaceOnUse" x1="129.636" y1="79.822" x2="127.91" y2="81.879" gradientTransform="matrix(1.25 0 0 1.25 -64.688 .313)"><stop offset="0" style="stop-color:#fff;stop-opacity:1"/><stop offset="1" style="stop-color:#fff;stop-opacity:0"/></linearGradient><linearGradient id="j" gradientUnits="userSpaceOnUse" x1="127.212" y1="82.296" x2="126.463" y2="83.189" gradientTransform="matrix(1.25 0 0 1.25 -64.688 .313)"><stop offset="0" style="stop-color:#fff;stop-opacity:1"/><stop offset="1" style="stop-color:#fff;stop-opacity:0"/></linearGradient><linearGradient id="y" gradientUnits="userSpaceOnUse" x1="100" y1="171" x2="100" y2="128" gradientTransform="scale(1.25)"><stop offset="0" style="stop-color:#e1ac8f;stop-opacity:.8"/><stop offset=".7" style="stop-color:#c27b55;stop-opacity:1"/></linearGradient><linearGradient id="w" gradientUnits="userSpaceOnUse" x1="129.636" y1="79.822" x2="127.91" y2="81.879" gradientTransform="matrix(1.25 0 0 1.25 -.313 .313)"><stop offset="0" style="stop-color:#fff;stop-opacity:1"/><stop offset="1" style="stop-color:#fff;stop-opacity:0"/></linearGradient><linearGradient id="h" gradientUnits="userSpaceOnUse" x1="122.67" y1="88.268" x2="123.606" y2="87.152" gradientTransform="matrix(1.25 0 0 1.25 -64.688 .313)"><stop offset="0" style="stop-color:#fff;stop-opacity:1"/><stop offset="1" style="stop-color:#fff;stop-opacity:0"/></linearGradient><filter id="a" filterUnits="objectBoundingBox" x="0%" y="0%" width="100%" height="100%"><feColorMatrix in="SourceGraphic" values="0 0 0 0 1 0 0 0 0 1 0 0 0 0 1 0 0 0 1 0"/></filter></defs><path style="fill:#ecf0f1;fill-opacity:1;stroke:none" d="M0 0h250v250H0z"/><path style="stroke:none;fill-rule:nonzero;fill:#c6dce2;fill-opacity:1" d="M128.75-46.582 123.914 90l-3.242-136.996Zm-37.246 1.25 22.277 135.21L99.562-46.042Zm-7.918 24.586 30.723 112.398L86.086-22.414ZM32.754-37.414 109.77 93.465 40.305-40.32ZM29.43-20.566 104.777 93.89 31.922-25.332Zm-44.262-15.38 71.5 76.915-65.043-81.793ZM-19.328-.331l117.59 102.719L-13.914-7.832Zm-18.336 2.918L69.422 83.422-36.968-.961Zm6.176 50.906 124.554 57.14L-27.57 46.415Zm-23.676.762 125.836 52.082-126.668-56.668ZM-68.47 94.398l135.477 20.594L-69.988 90.68Zm13.34 27.559 137.027 1.54-136.328-9.599Zm-17.535-56.871 111.25 34.168-112.082-38.75ZM99.562 296.043l14.22-135.926-22.278 135.211ZM86.087 272.41l28.223-114.066-30.723 112.402ZM38.53 300.367l59.516-114.242-67.063 111.332Zm-6.61-25.039 72.856-119.223L29.43 270.566Zm-45.937 24.125 84.09-107.734-90.547 102.86Zm.102-41.625L98.262 147.61l-117.59 102.72Zm-23.055-6.867 106.39-84.383-107.085 80.832Zm9.395-47.379 120.636-64.219-124.55 57.14Zm-28.422-3.254L70.672 143.66l-125.836 52.086Zm-13.992-41.012 136.996-24.308-135.477 20.594Zm-3.508 30.18 112.082-38.75-111.25 34.164ZM150.547-54.539 133.64 81.078 151.89-30.77Zm26.719 14.703L141.648 92.105l43.461-129.96Zm9.554 25.469-45.968 108.14 48.171-106.097Zm48.043-10.414-89.82 121.066L241.859-20.71Zm5.899 16.133-90.86 106.144L242.465-3.55Zm42.336-15.676L205.8 52.883l82.898-71.367Zm.14 40.226-128.25 91.016 132.407-82.75Zm21.668 10.442L186.476 92.77l118.56-62.813ZM288.11 71.629l-129.3 44.258 132.046-36.645Zm27.551 7.726-134.055 35.84L314.11 83.75Zm4.098 41.114-137.031-1.172 140.238 2.77Zm-20.645 16.754-136.125-12.16 135.532 20.23Zm2.508 20.382-84.398-11.359L300.074 162Zm-170.586 140.88-.535-137.032-7.54 136.457Zm11.719-23.016-12.488-115.852 9.754 117.102Zm60.508 21.547-68.235-138.47 60.32 140.142Zm6.703-16.196-69.938-121.898 66.723 126.207Zm37.64-9.172L147.81 151.57l93.257 126.625Zm18.567.032-92.895-96.805 91.641 100.2Zm1.98-51.243L154.25 144.25l108.914 82.559Zm23.496 3.008L175.68 152.047l116.062 76.058Zm19.508-37.523-130.488-41.84 131.402 45.754Zm-.508 29.605-104.418-51.39 104.512 56.05Zm0 0"/><path style="stroke:none;fill-rule:nonzero;fill:#2a232b;fill-opacity:1" d="M125.625 125.625h-1.25v-1.25h1.25Zm0 0"/><path style="stroke:none;fill-rule:nonzero;fill:#f0c7b1;fill-opacity:1" d="M244.27 249.723c-2.743-5.934-10.243-14.723-18.575-17.153-10.297-3.004-33.547-6.636-42.164-8.652-6.91-1.621-20.828-14.121-25.707-18.313-.875-.75-1.59-2.3-1.61-3.453-.171-13.578 5.247-49.652 5.247-49.652H88.543s5.414 36.074 5.238 49.652c-.011 1.153-.734 2.703-1.605 3.453-4.88 4.192-18.793 16.692-25.703 18.313-8.621 2.016-31.871 5.773-42.168 8.777-8.332 2.426-15.828 11.094-18.575 17.028C1.094 259.73 0 277.848 0 293.473h250c0-15.625-1.098-33.739-5.73-43.75Zm0 0"/><path style="stroke:none;fill-rule:nonzero;fill:#ffe4d6;fill-opacity:1" d="M198.945 230.074c30.426 4.426 43.23 10.883 47.243 63.399H250c0-15.625-1.098-33.739-5.73-43.75-2.743-5.93-10.243-14.723-18.575-17.153-10.297-3.004-33.547-6.632-42.164-8.652-6.91-1.621-22.804-15.086-27.054-20.438 4.199 5.88 15.988 19.504 26.316 23.075 4.941 1.707 9.059 2.484 16.152 3.52Zm-131.738-3.52c10.328-3.566 22.117-17.195 26.316-23.074-4.25 5.348-20.14 18.817-27.05 20.438-8.621 2.02-31.868 5.773-42.168 8.777-8.332 2.426-15.828 11.094-18.575 17.028C1.098 259.734 0 277.848 0 293.473h3.813c3.984-52.18 16.843-58.98 47.242-63.403 7.093-1.03 11.21-1.808 16.152-3.515Zm0 0"/><path style="stroke:none;fill-rule:nonzero;fill:#e1ac8f;fill-opacity:1" d="M119.559 247.023s-6.344-2.007-8.856-2.972c-13.062-5.012-55.492-8.258-55.492-8.258s44.691 1.773 54.555 3.473c-.575-5.957-3.774-25.004-3.774-25.004s6.438 21.02 8.012 26.32c.844 2.836 5.555 6.441 5.555 6.441Zm13.496-1.675c-.11.09-.239.21-.375.336.14-.106.27-.22.375-.336Zm-13.496 1.675s3.613 3.743 5.433 3.79c2.387.062 6.035-3.625 7.688-5.13-1.582 1.196-5.2 1.739-6.637 1.794-1.664.066-6.484-.454-6.484-.454Zm26.27-9.398c-1.93.313-5.481.988-5.481.988L143.207 220c-.809 3.84-5.594 20.266-10.152 25.348 2.39-2.02 7.699-2.989 10.406-3.38 12.797-1.855 12.789-1.855 51.328-6.175 0 0-36.34-.195-48.96 1.832Zm0 0"/><path style="fill:none;stroke-width:1.5;stroke-linecap:butt;stroke-linejoin:miter;stroke:#c27b55;stroke-opacity:1;stroke-miterlimit:4" d="M195.416 199.778c-2.194-4.747-8.194-11.778-14.86-13.722-8.237-2.403-26.837-5.31-33.731-6.922-5.528-1.296-16.662-11.296-20.566-14.65-.7-.6-1.272-1.84-1.287-2.762-.138-10.863 4.197-39.722 4.197-39.722H70.834s4.332 28.86 4.191 39.722c-.01.922-.588 2.162-1.284 2.762-3.903 3.353-15.035 13.353-20.563 14.65-6.897 1.613-25.497 4.62-33.734 7.022-6.666 1.94-12.663 8.875-14.86 13.622-3.709 8.006-4.584 22.5-4.584 35h200c0-12.5-.878-26.99-4.584-35Zm0 0" transform="scale(1.25)"/><path style="stroke:none;fill-rule:nonzero;fill:url(#y)" d="M136.922 213.578c5.555-2.078 12.027-7.082 18.363-13.215.168-9.843 2.41-27.675 3.91-38.633-19.656-2.27-48.734-2.261-68.39.016 1.504 10.957 3.742 28.77 3.906 38.61 6.34 6.136 12.816 11.144 18.375 13.222 5.59 2.09 18.242 2.09 23.836 0Zm0 0"/><path style="stroke:none;fill-rule:nonzero;fill:#386e77;fill-opacity:1" d="M188.898 224.05c-1.46 21.887.973 46.684.973 46.684-10.695-4.629-31.172-21.347-36.715-22.703-5.594 2.985-8.804 2.899-10.187 3.25-8.192 1.371-20.739 3.492-30.418-1.433-2.57.047-5.375.972-8.13 3.039-17.89 13.406-30.109 14.61-39.425 21.054 2.25-37.785-1.336-37.351-2.18-50.265-1.64-.617-1.879-.856-2.746-2.41-14.11 4.379-41.601 8.293-55.34 21.953-12.246 12.18-16.203 31.375-14.19 48.773 75.366-.812 193.214-1.793 268.96-1.047 1.105-55.816-28.64-56.039-70.602-66.894Zm0 0"/><path style="stroke:none;fill-rule:nonzero;fill:#265e68;fill-opacity:1" d="M152.574 250.96c-2.828-.702-5.05-.093-7.172-.093 1.77-.324 4.305-.996 7.754-2.836 4.88 1.196 25.004 16.383 36.168 22.664-12.64-3.246-25.832-16.386-36.75-19.734Zm-35.5.673a26.804 26.804 0 0 1-4.523-1.79c-2.57.048-5.375.977-8.13 3.044-14.19 10.629-29.96 16.836-38.398 20.816 41.934-11.535 34.938-21.883 51.051-22.07Zm0 0"/><path style="stroke:none;fill-rule:nonzero;fill:#4d7e86;fill-opacity:1" d="M61.48 222.422C17.246 235.07-5.79 240.297-9.266 291.988c-.066 0-.132.004-.199.004-.762-6.605-.66-13.465.426-20.105 1.77-10.856 6.172-21.11 13.77-28.668 13.738-13.664 41.23-17.578 55.335-21.957.047.09 1.371 1.078 1.414 1.16Zm127.418 1.629c-.011.172-.27 1.219-.28 1.387 34.874 10.199 67.866 12.597 70.288 65.5l.59.003c1.11-55.812-30.969-60-70.598-66.89Zm0 0"/><path style="stroke:none;fill-rule:nonzero;fill:#0c4049;fill-opacity:1" d="M260.234 291.344s-38.554.508-64.148.66c-17.34.11-34.668.203-52.008.277-111.77.399-117.312-.101-154.351-.101 0 0-.641-3.582-.786-7.102-2.175-52.96 41.7-55.828 71.239-64.422a.84.84 0 0 1 .96.383c.505.863 1.442 1.52 1.52 1.559.012.453.043.894.07 1.347-1.093-.414-1.253-.613-2.5-1.902-.117-.125-.246-.227-.402-.172-2.617.95-5.746 1.367-8.5 2.238 6.137 9.22 5.64 10.946 13.785 20.586.012.121.094 1.805.11 2.516-7.934-8.094-9.664-12.766-15.258-22.688C26.598 231.941 4.027 233.2-6.32 261.81c-3.407 9.425-4.055 20.605-2.961 30.27 81.472-.888 186.535-1.74 268.703-1.052-.961-53.574-29.555-58.488-59.469-64.222-2.039 5.027-7.445 12.043-11.223 16.004-.027-.813-.054-1.641-.066-2.454 2.063-2.68 7.86-10.898 9.238-13.988-2.945-.828-5.879-1.047-8.808-1.91v-1.133c65.57 7.84 71.14 25.723 71.14 68.02ZM153.277 248.37a3.586 3.586 0 0 0-.91-.246c-3.238.79-4.355 1.676-9.793 2.75-4.304.852-16.226 2.652-25.5.293.051.133 0 0 0 0-1.41-.781-2.785-1.008-4.46-.969 10.632 6.04 32.671 1.719 40.663-1.828Zm15.282 9.762c-.371-.262-.73-.524-1.086-.801-23.918 12.191-46.813 11.918-70.985 6.527a95.77 95.77 0 0 1-4.543-1.308c-.465.25-.949.5-1.445.715 24.77 10.066 55.309 8.793 78.059-5.133Zm0 0"/><path style="stroke:none;fill-rule:nonzero;fill:#fff;fill-opacity:1" d="M65.055 274.16c2.332-38.84-3.59-42.332-2.133-58.312 4.644-2.72 9.25-3.551 11.574-6.254 11.086-12.969 9.793-18.508 16.996-21.899 1.434 5.996 2.305 20.07 2.313 20.258 5.437 16.121 9.144 23.012 13.601 29.492 2.586 3.758 8.114 9.52 9.438 13.442-2.656-1.336-7.262-1.34-12.364 2.215-8.273 5.714-5.285 7.074-22.523 13.328-6.113 2.199-11.39 5.187-16.902 7.73Zm123.468-33.98c-.007-.395.442-20.399.493-22.059-8.868-3.25-18.305-27.851-30.422-29.52-3.574 22.372.672 14.329-9.98 41.419-2.634 6.69-3.626 9.222-4.114 20.316.273-.07.746-.195.77-.195 3.671-.97 4.898-1.551 7.128-2.153 1.141.235 3.036 1.211 3.391 1.492l-.012-.015c10.29 5.492 19.887 15.398 34.149 21.492.289-5.375-1.403-18.715-1.403-30.777Zm0 0"/><path style="stroke:none;fill-rule:nonzero;fill:#dedbd4;fill-opacity:1" d="M146.758 249.727c-.453.128-.938.261-1.488.41-.028 0-.497.129-.77.195.488-11.094 1.48-13.621 4.113-20.316 10.653-27.09 6.407-19.043 9.98-41.418 2.427.332 4.75 1.77 6.981 3.855-1.535 11.875-4.8 21.25-9.558 31.961 5.574-3.152 11.62-7.016 17.09-10.031-11.368 10.23-22.727 20.465-26.348 35.344Zm-29.914 1.16c-1.324-3.922-6.852-9.684-9.438-13.442-4.457-6.48-8.164-13.367-13.601-29.492-.008-.187-.88-14.262-2.313-20.258-4.555 2.14-4.172 3.696-7.21 8.887 2.445 12.66 7.39 20.707 14.406 31.23-5.981-3.94-14.329-10.68-22.586-14.808 13.914 10.437 23.921 23.809 33.316 37.637 3.047-.93 5.664-.637 7.426.246Zm0 0"/><path style="stroke:none;fill-rule:nonzero;fill:#afa9a0;fill-opacity:1" d="M107.52 237.371c-6.797-9.887-9.887-18.863-13.579-29.426 0 0-.601-14.543-2.078-20.445-7.425 3.406-6.32 7.582-17.472 20.625-3.157 3.672-7.438 5.21-11.61 7.71-1.07 11.75 2.23 20.731 2.438 31.38.297 7.847.265 17.601-.317 27.168 5.563-2.555 10.907-5.598 17.102-7.824 17.258-6.258 14.293-7.637 22.555-13.344 5.332-3.715 10.02-3.473 12.515-2.047-1.129-3.969-6.89-9.934-9.554-13.797Zm-19.004 25.086c-10.942 4.309-7.942 2.305-22.965 10.918 4.195-29.773-2.176-43.543-2.176-56.96 4.324-2.24 8.477-3.458 11.664-7.106 11.93-13.723 9.445-17.082 16.05-21.118.415 3.938.747 7.903.954 11.883.703 14.078-1.176 4.461 4.363 18.969 8.188 21.441 16 23.668 19.703 31.078-10.511-4.578-17.992 9.137-27.593 12.336Zm100.148-22.281c-.008-.547.484-22.035.496-22.149-8.887-3.074-18.762-28.093-31.09-29.574-1.043 6.406-2.273 20.277-2.273 20.277-8.406 28.16-10.649 23.282-11.442 41.79.004 0 .891-.247.95-.25 3.504-.922 4.836-1.508 7.062-2.145.352.07.926.246 1.266.395.047.027 2.125 1.05 2.082 1.066 10.351 5.531 19.922 15.465 34.34 21.574.336-5.262-1.39-18.785-1.39-30.984Zm-8.555 24.07c-9.652-5.785-16.332-12.797-26.57-16.976-2.773-1.172-6.344 1.21-8.781 3 1.344-11.77.883-9.098 3.383-15.86 11.523-31.297 8.3-13.582 11-45.289 10.57 3.527 20.242 26.191 28.902 28.984-2.781 32.93.95 44.606 1.39 52.075-3.218-1.73-6.195-4.059-9.324-5.934Zm0 0"/><path style="fill-rule:nonzero;fill:#f0c7b1;fill-opacity:1;stroke-width:1.5;stroke-linecap:butt;stroke-linejoin:miter;stroke:#c27b55;stroke-opacity:1;stroke-miterlimit:4" d="M45.672 84.344c-1.484-2.463-6.328-9.2-10.031-8.253-3.013.772-2.975 4.972-3.207 7.453-.34 3.644-.465 9.993.525 12.569.95 2.475 3.96 7.253 5.828 9.075 2.3 2.234 5.97 9.359 6.422 10.096.71 1.17 2.138 2.841 4.325 2.71 3.072-.185 5.725-3.088 5.966-4.485 1.3-7.59-5.962-22.759-9.828-29.165Zm0 0" transform="scale(1.25)"/><path style="stroke:none;fill-rule:nonzero;fill:#c27b55;fill-opacity:1" d="M55.25 124.176c-.18-.703.008-1.89.191-3.035.168-1.043.325-2.032.23-2.727-.362-2.613-2.394-7.578-3.722-10.266-1.527-3.097-3.996-6.996-7.097-8-1.282-.414-2.125.082-2.614.586-.36.371-.441.805-.32.86.117.05.383-.313.77-.649.316-.277-.637-.05 0 0-.258 1.297-1.083 7.875-.512 12.676.445 3.777 1.312 6.602 1.578 7.024.039.445.105.878.2 1.304 1.253 5.512 9.398 12.719 11.292 14.774.352.379.719.605.809.511.09-.093-.13-.468-.477-.847-1.871-2.04-9.96-9.227-11.172-14.543-1.285-5.645 4.89-14.012 5.875-15.781.5.832.926 1.628 1.254 2.296.258.52.543 1.13.836 1.793-.578.922-6.394 7.657-4.918 13.051.55 1.988 4.781 4.55 6.414 5.254.903.387 1.238.965 1.633 1.633.453.777.04 2.785 1.535 3.422.305.129.582.183.824.183.422 0 .743-.164.98-.355.024.34.024.773.013 1.176-.016.523.058.761.183.773.13.008.262-.219.278-.734.023-.637.019-1.426-.094-1.805-.336-1.113-1.36-2.367-2.45-3.7-1.066-1.304-1.242-3.784-1.519-4.874Zm-11.54-4.887c-2.933-8.652 1.606-16.535 2.263-17.723 1.265.5 3.203 2.743 4.027 4.043-.602 1.043-6.168 7.86-6.29 13.68Zm13.505 13.79c-1.356-.575-.883-2.477-1.32-3.227-.399-.68-.81-1.38-1.848-1.829a4.775 4.775 0 0 1-.73-.414c-3.352-7.593.367-10.91 1.3-11.59.285.926.496 1.778.594 2.461.086.625-.074 1.625-.227 2.586-.191 1.196-.386 2.43-.183 3.23.304 1.192.515 3.712 1.613 5.06.977 1.195 1.98 2.43 2.32 3.433-.144.2-.609.68-1.52.29Zm0 0"/><path style="fill-rule:nonzero;fill:#f0c7b1;fill-opacity:1;stroke-width:1.5;stroke-linecap:butt;stroke-linejoin:miter;stroke:#c27b55;stroke-opacity:1;stroke-miterlimit:4" d="M154.066 84.344c1.487-2.463 6.328-9.2 10.03-8.253 3.013.772 2.973 4.972 3.207 7.453.34 3.644.463 9.993-.525 12.569-.95 2.475-3.96 7.253-5.828 9.075-2.297 2.234-5.969 9.359-6.422 10.096-.71 1.17-2.137 2.841-4.325 2.71-3.069-.185-5.722-3.088-5.965-4.485-1.3-7.59 5.965-22.759 9.828-29.165Zm0 0" transform="scale(1.25)"/><path style="stroke:none;fill-rule:nonzero;fill:#c27b55;fill-opacity:1" d="M192.902 129.055c-1.086 1.328-2.109 2.586-2.445 3.695-.117.379-.117 1.168-.098 1.805.016.515.153.746.282.734.125-.012.199-.25.183-.773-.012-.403-.015-.836.012-1.176.234.195.555.355.976.355.247 0 .52-.05.829-.18 1.492-.64 1.078-2.648 1.535-3.425.39-.668.73-1.246 1.629-1.633 1.636-.7 5.867-3.262 6.414-5.254 1.48-5.39-4.336-12.129-4.918-13.05.293-.66.582-1.274.836-1.794a31.64 31.64 0 0 1 1.258-2.293c.984 1.77 7.156 10.133 5.875 15.778-1.211 5.316-9.301 12.504-11.176 14.543-.348.383-.567.754-.477.847.094.094.461-.132.809-.511 1.894-2.051 10.039-9.262 11.293-14.774a9.46 9.46 0 0 0 .203-1.304c.262-.422 1.129-3.243 1.574-7.02.57-4.8-.254-11.379-.512-12.68.637-.05-.316-.277 0 0 .391.34.657.7.774.649.117-.051.035-.489-.324-.86-.489-.504-1.332-1-2.614-.586-3.097 1.008-5.57 4.907-7.097 8-1.328 2.692-3.36 7.653-3.72 10.266-.097.695.06 1.684.227 2.727.184 1.144.372 2.332.192 3.035-.277 1.09-.453 3.57-1.52 4.879Zm6.77-23.446c.824-1.3 2.762-3.543 4.027-4.043.66 1.188 5.196 9.07 2.262 17.723-.121-5.82-5.688-12.637-6.29-13.68Zm-8.734 27.176c.34-1.004 1.343-2.238 2.32-3.43 1.101-1.347 1.308-3.87 1.613-5.062.203-.8.008-2.035-.18-3.23-.156-.961-.312-1.958-.23-2.583.098-.683.309-1.535.594-2.464.933.68 4.652 4 1.3 11.593a4.924 4.924 0 0 1-.73.414c-1.04.446-1.45 1.149-1.848 1.825-.437.75.036 2.652-1.32 3.23-.91.39-1.375-.09-1.52-.293Zm0 0"/><path style="stroke:none;fill-rule:nonzero;fill:#f0c7b1;fill-opacity:1" d="M180.004 157.883c-8.586 13.558-28.84 37.91-43.082 43.203-5.594 2.078-18.246 2.078-23.836 0-14.246-5.293-34.496-29.649-43.082-43.203-8.442-13.32-18.567-60.36-18.582-60.426a77.076 77.076 0 0 1-2.504-19.422c-.066-42.27 33.941-76.574 75.965-76.64 42.027-.067 76.14 34.132 76.203 76.398a77.118 77.118 0 0 1-2.438 19.43c-.023.066-10.171 47.285-18.644 60.66Zm0 0"/><path style="stroke:none;fill-rule:nonzero;fill:#e8b9a0;fill-opacity:1" d="M137.691 2.473c33.743 7.879 58.871 38.304 58.813 74.636A77.022 77.022 0 0 1 194 96.527c-.016.07-9.223 47.106-17.664 60.426-8.59 13.559-27.922 36.988-42.164 42.281-1.848.688-6.285 1.38-9.168 1.38-2.887 0-7.324-.692-9.168-1.38-14.246-5.293-33.578-28.722-42.168-42.28-8.441-13.321-17.648-60.356-17.66-60.427A77.024 77.024 0 0 1 53.5 77.11c-.055-36.332 25.07-66.757 58.816-74.636C76.29 8.555 48.86 40.078 48.918 78.035a76.899 76.899 0 0 0 2.504 19.422c.016.066 10.137 47.106 18.578 60.426 8.59 13.554 28.84 37.91 43.086 43.203 2.797 1.043 7.36 1.559 11.922 1.555 4.555 0 9.113-.512 11.91-1.555 14.246-5.293 34.496-29.649 43.086-43.203 8.441-13.32 18.566-60.36 18.578-60.426a76.899 76.899 0 0 0 2.504-19.422c.062-37.957-27.367-69.48-63.395-75.562Zm0 0"/><path style="fill:none;stroke-width:1.5;stroke-linecap:butt;stroke-linejoin:miter;stroke:#c27b55;stroke-opacity:1;stroke-miterlimit:4" d="M144.003 126.306c-6.869 10.847-23.072 30.328-34.465 34.563-4.475 1.662-14.597 1.662-19.07 0-11.396-4.235-27.596-23.719-34.465-34.563C49.25 115.65 41.15 78.02 41.138 77.966a61.661 61.661 0 0 1-2.004-15.538c-.053-33.815 27.153-61.26 60.772-61.312 33.622-.054 60.913 27.306 60.963 61.118a61.694 61.694 0 0 1-1.95 15.544c-.019.053-8.138 37.828-14.916 48.528Zm0 0" transform="scale(1.25)"/><path style="stroke:none;fill-rule:nonzero;fill:url(#z)" d="m120.285 174.047 10.371-.258c-1.203 5.586-9.55 4.785-10.37.258Zm0 0"/><path style="stroke:none;fill-rule:nonzero;fill:#c27b55;fill-opacity:1" d="M120.43 174.398c-.465-.062-.395-.722.097-.675.055.007 5.387.683 9.848-.27.484-.094.625.57.164.668-3.496.746-8.02.574-10.11.277Zm4.675-4.46c-1.878 0-3.703-.653-5.53-.97-2.052-.359-4.095-.05-6.145.13-2.094.187-6.664-.016-7.957-.832-.723-.461-.586-1.528.226-1.813.77-.273 1.965.297 2.739.434 3.59.644 5.48-.043 8.628-.149 4.813-.144 5.325 1.88 11.329.664 6.457-1.304 9.367-.316 13.996-1.71.636-.196 1.39-.704 2.058-.36.77.398.73 1.48-.062 1.832-4.258 1.875-8.965 1.117-13.692 1.906-1.855.309-3.699.868-5.59.868Zm0 0"/><path style="stroke:none;fill-rule:nonzero;fill:url(#A)" d="M77.191 103.152c-.632-2.855 6.489-4.965 15.887-3.812 9.399 1.152 15.922 6.906 15.067 9.805-.477 1.609-13.301 4.058-17.817 3.558-4.582-.504-11.61-2.652-13.137-9.55Zm0 0"/><path style="stroke:none;fill-rule:nonzero;fill:#4e60a3;fill-opacity:1" d="M100.313 105.313c0 4.14-3.36 7.5-7.5 7.5-4.141 0-7.5-3.36-7.5-7.5 0-4.141 3.359-7.5 7.5-7.5 4.14 0 7.5 3.359 7.5 7.5Zm0 0"/><use xlink:href="#B" mask="url(#C)"/><use xlink:href="#D" mask="url(#E)"/><path style="stroke:none;fill-rule:nonzero;fill:#4e60a3;fill-opacity:1" d="M95.754 105.313a2.94 2.94 0 1 1-5.882 0 2.94 2.94 0 0 1 5.882 0Zm0 0"/><use xlink:href="#F" mask="url(#G)"/><use xlink:href="#H" mask="url(#I)"/><use xlink:href="#J" mask="url(#K)"/><use xlink:href="#L" mask="url(#M)"/><path style="stroke:none;fill-rule:nonzero;fill:#f0c7b1;fill-opacity:1" d="M66.617 103.75c1.012 13.625 14.547 29.48 25.633 27.797 13.121.129 26.078-9.836 26.078-27.883 0-18.047-6.355-33.16-26.406-33.16-14.375 0-25.305 15.2-25.305 33.246Zm10.574-.598c-.632-2.855 6.489-4.965 15.887-3.812 9.399 1.152 15.922 6.906 15.067 9.805-.477 1.609-13.301 4.058-17.817 3.558-4.582-.504-11.61-2.652-13.137-9.55Zm0 0"/><path style="stroke:none;fill-rule:nonzero;fill:url(#N)" d="M90.328 112.703c4.516.5 17.34-1.95 17.817-3.558.859-2.899-5.668-8.653-15.067-9.805-8.074-.988-14.453.43-15.695 2.66 1.125-8 9.625-14.246 19.984-14.293 11.14-.047 20.184 7.094 20.215 15.957.027 8.86-8.98 16.078-20.117 16.129-11.14.043-20.188-7.098-20.219-15.957 0-.133.02-.258.024-.39 1.664 6.66 8.543 8.757 13.058 9.257Zm0 0"/><path style="stroke:none;fill-rule:nonzero;fill:url(#O)" d="M77.191 103.152c-.632-2.855 6.489-4.965 15.887-3.812 9.399 1.152 15.922 6.906 15.067 9.805-.477 1.609-13.301 4.058-17.817 3.558-4.582-.504-11.61-2.652-13.137-9.55Zm0 0"/><path style="stroke:none;fill-rule:nonzero;fill:#c27b55;fill-opacity:1" d="M77.684 96.77c5.261-2.473 11.687-2.7 17.3-1.254 3.004.699 6.204 1.605 8.829 3.296 2.43 1.418 4.406 3.126 6.25 5.239-1.676-2.13-3.465-3.899-5.778-5.34-2.844-1.77-5.96-2.867-9.207-3.645-5.73-1.406-12.152-1.086-17.394 1.704Zm0 0"/><path style="stroke:none;fill-rule:nonzero;fill:#000;fill-opacity:1" d="M78.46 97.523c1.103-.437 5.083-1.25 6.821-1.332 2.11-.101 6.34.157 8.418.532 4.219.761 11.567 3.105 14.598 8.98.933 1.805.094 3.07-.152 3.344.375-3.031-6.047-8.434-15.067-9.504-9.398-1.121-16.52.926-15.887 3.695 1.528 6.684 8.555 8.766 13.137 9.258 5.125.547 14.606-1.926 15.856-2.191-2.496 1.261-9.403 2.617-12.207 2.879-.93.086-2.801.129-3.735.105-7.433-.2-12.71-3.969-14.66-9.074-1.254-3.285.117-5.586 2.879-6.692Zm0 0"/><path style="stroke:none;fill-rule:nonzero;fill:url(#P)" d="M172.313 103.152c.632-2.855-6.489-4.965-15.891-3.812-9.399 1.152-15.922 6.906-15.063 9.805.473 1.609 13.297 4.058 17.813 3.558 4.582-.504 11.613-2.652 13.14-9.55Zm0 0"/><path style="stroke:none;fill-rule:nonzero;fill:#4e60a3;fill-opacity:1" d="M164.688 105.313c0 4.14-3.36 7.5-7.5 7.5-4.141 0-7.5-3.36-7.5-7.5 0-4.141 3.359-7.5 7.5-7.5 4.14 0 7.5 3.359 7.5 7.5Zm0 0"/><use xlink:href="#Q" mask="url(#R)"/><use xlink:href="#S" mask="url(#T)"/><path style="stroke:none;fill-rule:nonzero;fill:#4e60a3;fill-opacity:1" d="M160.129 105.313a2.94 2.94 0 1 1-2.941-2.942 2.938 2.938 0 0 1 2.94 2.942Zm0 0"/><use xlink:href="#U" mask="url(#V)"/><use xlink:href="#W" mask="url(#X)"/><use xlink:href="#Y" mask="url(#Z)"/><use xlink:href="#aa" mask="url(#ab)"/><path style="stroke:none;fill-rule:nonzero;fill:#f0c7b1;fill-opacity:1" d="M157.578 70.504c-20.05 0-26.406 15.113-26.406 33.16 0 18.043 12.957 28.012 26.078 27.879 11.086 1.684 24.621-14.172 25.633-27.793 0-18.047-10.93-33.246-25.305-33.246Zm1.594 42.2c-4.516.5-17.34-1.95-17.813-3.56-.859-2.898 5.664-8.652 15.063-9.804 9.402-1.153 16.523.957 15.89 3.812-1.527 6.899-8.558 9.047-13.14 9.551Zm0 0"/><path style="stroke:none;fill-rule:nonzero;fill:url(#ac)" d="M159.172 112.703c-4.516.5-17.34-1.95-17.813-3.558-.859-2.899 5.664-8.653 15.063-9.805 8.074-.988 14.453.43 15.695 2.66-1.12-8-9.625-14.246-19.984-14.293-11.137-.047-20.184 7.094-20.215 15.957-.027 8.86 8.98 16.078 20.121 16.129 11.14.043 20.184-7.098 20.215-15.957 0-.133-.02-.258-.024-.39-1.664 6.66-8.542 8.757-13.058 9.257Zm0 0"/><path style="stroke:none;fill-rule:nonzero;fill:url(#ad)" d="M172.313 103.152c.632-2.855-6.489-4.965-15.891-3.812-9.399 1.152-15.922 6.906-15.063 9.805.473 1.609 13.297 4.058 17.813 3.558 4.582-.504 11.613-2.652 13.14-9.55Zm0 0"/><path style="stroke:none;fill-rule:nonzero;fill:#c27b55;fill-opacity:1" d="M171.816 96.77c-5.261-2.473-11.687-2.7-17.3-1.254-3.004.699-6.203 1.605-8.828 3.296-2.43 1.418-4.407 3.126-6.25 5.239 1.675-2.13 3.464-3.899 5.777-5.34 2.844-1.77 5.96-2.867 9.207-3.645 5.73-1.406 12.152-1.086 17.394 1.704Zm0 0"/><path style="stroke:none;fill-rule:nonzero;fill:#000;fill-opacity:1" d="M171.04 97.523c-1.099-.437-5.083-1.25-6.821-1.332-2.11-.101-6.34.157-8.418.532-4.219.761-11.563 3.105-14.598 8.98-.933 1.805-.094 3.07.156 3.344-.375-3.031 6.047-8.434 15.063-9.504 9.402-1.121 16.523.926 15.89 3.695-1.527 6.684-8.558 8.766-13.14 9.258-5.121.547-14.602-1.926-15.856-2.191 2.5 1.261 9.407 2.617 12.207 2.879.93.086 2.801.129 3.735.105 7.437-.2 12.71-3.969 14.66-9.074 1.254-3.285-.117-5.586-2.879-6.692Zm0 0"/><path style="stroke:none;fill-rule:nonzero;fill:url(#ae)" d="M176.25 142.469c.043 28.277-22.863 51.242-51.172 51.281-28.305.047-51.285-22.844-51.328-51.125-.047-28.277 22.863-51.332 51.172-51.375 28.3-.047 51.285 22.938 51.328 51.219Zm0 0"/><path style="stroke:none;fill-rule:nonzero;fill:url(#af)" d="M171.875 67.5c0 25.887-20.984 46.875-46.875 46.875-25.887 0-46.875-20.988-46.875-46.875 0-25.89 20.988-46.875 46.875-46.875 25.89 0 46.875 20.984 46.875 46.875Zm0 0"/><path style="stroke:none;fill-rule:nonzero;fill:#2a232b;fill-opacity:1" d="M67.5 92.734c12.441-12.464 20.953-7.39 38.234-4.078 1.059.203 7.903 1.922 6.641 4.336-.605 1.156-2.547 1.02-3.629.996-17.11-.316-25.43-12.492-41.246-1.254ZM182.5 92.734c-12.441-12.464-20.953-7.39-38.234-4.078-1.059.203-7.903 1.922-6.641 4.336.605 1.156 2.547 1.02 3.629.996 17.11-.316 25.43-12.492 41.246-1.254Zm0 0"/><path style="stroke:none;fill-rule:nonzero;fill:#e1ac8f;fill-opacity:1" d="M113.895 144.375c-1.098 2.578 7.418 5.363 10.648 5.535 3.5.184 13.309-3.625 11.644-6.238-1.75-2.746-8.304-.36-11.132-.36-2.817 0-9.692-2.382-11.16 1.063Zm0 0"/><path style="stroke:none;fill-rule:nonzero;fill:#c27b55;fill-opacity:1" d="M127.32 146.324c-.285-.949 2.348-1.98 3.32-2.12 1.38-.2 4.204 1.003 3.95 1.991-.23.871-2.684-.668-3.574-.535-.918.133-3.422 1.55-3.696.664Zm-8.601-.308c1.207 0 3.004.777 3.332.09.394-.817-2.672-1.825-3.574-1.715-.743.09-3.415 1.644-3.047 2.3.34.602 1.691-.675 3.289-.675Zm0 0"/><use xlink:href="#ag" mask="url(#ah)"/><path style="stroke:none;fill-rule:nonzero;fill:#2a232b;fill-opacity:1" d="M56.219 118.617c-3.032-11.015-4.66-20.664-6.926-30.73l.102-.024c-.856-2.11-3.95-18.824-3.98-19.004-3.157-22.214 6.241-23.48 6.05-32.75 3.957 1.985 7.8 1 11.273-1.703-3.648-1.875-2.496-2.172-7.34-5.12 3.414-.59 5.407.206 8.309.57-2.48-2.481-7.344-7.536-10.504-6.868l-.207-.441c4.574-3.57 10.684 3.863 16.191 1.848C69.356 3.93 99.27-.32 106.552-3.36c9.695-3.692 19.82-11.805 26.941-12.528-4.031 4.051-6.5 10.559-6.683 15.446 5.875-5.606 6.289-5.442 15.191-15.329 0 7.954-2.203 8.954-5.066 13.622 7.765-5.086 17.445-19.36 32.351-21.543l.164.46c-5.37 3.169-9.527 8.508-12.37 15.887 2.82-3.406 6.812-7.105 11.23-7.773l.168.46c-2.77 1.657-8.192 7.18-9.434 16.423 5.477-6.114 14.187-11.184 20.168-13.098l.234.434c-5.492 4.464-7.691 12.285-8.933 18.93 3.847-5.723 6.09-7.028 10.933-9.434-1.558 2.332-1.457 1.922-2.699 4.457 2.996 7.652 12.895 7.953 14.582 21.324 2.04-1.781 2.848-2.227 5.192-3.863l.351.34c-1.762 2.73-3.21 7.574-4.176 10.812 3.473-2.652 8.84-4.61 12.618-5.973l.265.41c-3.187 3.243-7.062 8.184-7.703 13.543 1.25-.738 1.309-.656 2.938-1.832 0 3.852.132 3.36.16 5.133 1.57-1.406 1.812-1.605 2.843-2.726-.23 40.449-2.304 32.386-7.894 60.582-.98 4.953-2.715 13.601-3.828 17.757l-7.563 1.297c2.34-27.992-.113-21.886 1.586-39.504 2.516-25.972-18.508-47.265-46.281-40.296-5.621 1.41-28.05 1.41-33.668 0-30.684-7.704-41.738 10.226-45.031 41.597-1.617 15.399-2.012 10.203.332 38.203Zm0 0"/><path style="stroke:none;fill-rule:nonzero;fill:#3a353a;fill-opacity:1" d="M202.969 42.95c-.024-1.774-.156-1.282-.156-5.134-1.63 1.176-1.688 1.094-2.938 1.832.64-5.359 4.512-10.3 7.703-13.539l-.266-.41c-3.777 1.363-9.144 3.317-12.62 5.973.964-3.242 2.417-8.082 4.18-10.817l-.356-.34c-2.34 1.637-3.149 2.087-5.188 3.864-1.691-13.371-11.586-13.668-14.582-21.324 1.238-2.532 1.14-2.125 2.7-4.457-4.844 2.406-7.087 3.71-10.934 9.437 1.238-6.648 3.441-14.469 8.93-18.933l-.235-.434c-5.977 1.914-14.691 6.984-20.164 13.102 1.238-9.247 6.664-14.766 9.434-16.422l-.168-.461c-4.418.668-8.41 4.363-11.23 7.77 2.839-7.38 7-12.72 12.37-15.884l-.164-.464C154.38-21.508 144.7-7.234 136.934-2.145c2.859-4.671 5.062-5.671 5.062-13.625-8.898 9.887-9.316 9.723-15.187 15.332.183-4.886 2.652-11.398 6.683-15.449-7.12.727-17.246 8.836-26.941 12.528C99.27-.32 69.355 3.93 69.187 24.398c-5.507 2.012-11.617-5.421-16.19-1.851l.206.441c3.16-.668 8.024 4.387 10.504 6.867-2.898-.363-4.895-1.156-8.309-.566 4.844 2.945 3.692 3.242 7.34 5.117-3.472 2.703-7.316 3.688-11.273 1.707.191 9.27-9.207 10.535-6.05 32.746.03.18 3.124 16.895 3.98 19.004l-.102.028c2.266 10.062 3.895 19.71 6.926 30.73l.031.004c-.828-20.555-13.773-49.77-6.176-68.484.992-2.446 4.824-8.891 4.824-8.891S66.934 39.672 67.5 35c0 0-2.5-1.25-3.75-2.5 2.5 1.25 2.5-2.5 5-1.25 0-2.5-3.75-1.25-3.75-3.75 2.5 0 5 0 7.5 2.5-1.25-6.25 0-12.5 5-16.25C90 3.75 106.25 5 118.75-5c-1.25 6.25-2.5 12.5-2.5 18.75 7.5-3.75 10-11.25 16.25-16.25 1.25 5-1.25 11.25-1.25 16.25 3.75-8.75 8.75-17.5 20-20-5 5-5 12.5-5 18.75 0-5 5-7.5 6.25-11.25v15C155 8.75 160 5 166.25 2.5c-5 5-3.75 10-5 16.25 3.75-3.75 8.75-5 12.5-8.75 3.75 7.5 1.25 13.75 1.25 21.25 1.25-6.25 7.5-10 11.25-15 1.25 6.25 1.25 12.5 0 18.75 1.25-3.75 3.75-6.25 5-10 0 6.074-.836 11.328-2.477 16.426 1.57-1.813 4.133-2.637 4.977-5.176v15.035c.727-1.492 2.863-2.012 3.75-3.785-1.066 4.266-.316 7.629-.074 11.629.465-2.453 2.824-3.953 3.676-6.211.05-.973.101-1.945.148-2.918.285 1.14.168 2.078-.148 2.918-1.141 22.215-3.243 44.395-7.82 65.785l.808-.137c1.113-4.156 2.847-12.804 3.828-17.761 5.59-28.192 7.668-20.13 7.894-60.582-1.03 1.125-1.269 1.32-2.843 2.726Zm0 0"/><path style="stroke:none;fill-rule:nonzero;fill:#000;fill-opacity:1" d="M209.723 24.617c-6.184 1.043-10.508 3.051-13.813 5.313.48-1.254 2.742-8.336 5.176-11.313-3.738 1.668-5.899 3.457-7.149 4.39 0-1.292-.5-2.78-.738-3.55-.238-.645-.433-1.398-1.59-3.277-6.464-9.117-6.867-5.305-12.16-12.285.965-2.266 2.36-4.465 4.113-6.29-4.886.696-7.457 2.594-10.55 5.637-.051.051-.09.102-.125.153 1.937-7.66 5.738-14.297 13.199-16.79-9.23-.335-20.656 6.493-26.399 13.301 2.481-7.976 5.805-11.777 10.75-15.312-3.558-.528-7.042.926-9.8 3.226 3.175-5.496 7.894-9.875 11.687-11.914-.539-.011-1.176-.05-1.875 0-.969-.25-6.847.707-8.949 1.614-10.41 4.062-17.984 13.527-21.238 16.597 2.394-3.87 2.511-6.62 2.074-10.648-.816.703-14.516 13.82-14.688 13.988.973-5.387 2.809-8.672 6.278-13.488-6.184-1.157-21.664 9.02-31.262 11.738C92.61-1.57 67.656 4.109 68.801 24.082c-5.371 1.023-13.23-7.598-17.352-.363 3.309-1.961 7.692 2.761 10.739 5.46-1.25-.202-5.43-1.183-7.45.165 2.367.918 4.438 3.664 7.364 5.125.035.011.074.023.109.05-2.672 1.41-5.832 2.544-8.734 1.739-.438-.125-.727-.203-.727-.215-.336-.148-.7-.3-1.086-.473h-.016l-.011-.015a28.03 28.03 0 0 0-.5-.262c.87 7.012-9.77 12.695-8.598 27.527.48 9.125 6.184 36.883 13.356 55.707l.605.18c-2.992-10.785-4.723-20.926-6.96-30.879-.196 0-3.845-18.805-3.876-19.012-3.133-22.039 6.242-23.636 6.063-32.3 3.898 1.953 8.164.547 11.472-2.16-3.898-1.938-3.066-2.485-7.097-4.938 2.703-.469 6.003.602 8.273.75-2.934-2.934-7.875-8.137-11.227-7.426 4.461-3.48 10.622 4.09 16.29 1.824 0-20.476 29.652-24.543 37.21-27.699 9.09-3.457 20.356-11.844 26.176-12.437-3.05 3.074-6.277 9.875-6.277 15.726 6.043-5.797 6.64-5.77 15.203-15.277 0 7.52-2.809 8.86-5.54 13.715 8.017-4.625 17.724-19.785 33.114-22.04-6.445 3.798-10.547 10.407-13.015 17.462 2.941-3.82 7.25-8.16 12.039-8.887-2.512 1.504-8.578 7.23-9.649 17.414 5.43-6.395 14.48-11.684 20.586-13.637-5.758 4.684-7.96 12.961-9.238 20.274 2.11-3.215 4.195-6.121 7.465-8.176a.089.089 0 0 1 .047-.024c1.289-.875.953-.636 3.152-1.738-.836 1.25-.914 1.086-2.238 3.801 3.035 7.973 13.156 8.016 14.664 21.836 2.32-2.059 3.05-2.43 5.523-4.16-1.926 2.992-3.48 8.457-4.437 11.648 3.632-3.105 10.347-5.414 13.175-6.437-3.75 3.812-7.39 8.87-7.824 14.199.766-.516 1.742-.926 2.985-1.824 0 3.406.164 2.949.164 5.199.656-.602 2.148-1.887 2.84-2.637-.247 39.645-2.352 31.957-7.891 59.887-2.07 10.473-3.164 15.312-3.852 17.855l.535-.109c4.48-13.438 13.422-43.8 13.02-59.52-.043-5.875-1.324-18.125-1.39-19.375-.024.024-2.602 2.461-2.637 2.461 0-.636-.262-3.355-.262-4.836-.441.34-1.367.973-2.613 1.7 1.726-5.203 4.347-8.438 9.25-14.313Zm0 0"/></svg>